<?xml version="1.0" encoding="utf-8"?>
<!-- Generator: Adobe Illustrator 24.1.1, SVG Export Plug-In . SVG Version: 6.00 Build 0)  -->
<svg version="1.1" id="Layer_1" xmlns="http://www.w3.org/2000/svg" xmlns:xlink="http://www.w3.org/1999/xlink" x="0px" y="0px"
	 viewBox="0 0 50 50" style="enable-background:new 0 0 50 50;" xml:space="preserve">
<style type="text/css">
	.st0{fill:#FFFFFF;}
</style>
<rect x="15.75" y="6.64" class="st0" width="0" height="2.75"/>
<rect x="31.15" y="6.64" class="st0" width="0.04" height="2.75"/>
<g>
	<path class="st0" d="M49,15.38v24.71c0,4.82-3.92,8.74-8.74,8.74H9.69c-4.81,0-8.74-3.92-8.74-8.74V15.38
		c0-4.82,3.92-8.74,8.74-8.74h4.7v2.75h-4.7c-3.3,0-5.99,2.69-5.99,5.99v24.71c0,3.3,2.69,5.99,5.99,5.99h30.57
		c3.3,0,5.99-2.69,5.99-5.99V15.38c0-3.31-2.69-5.99-5.99-5.99h-5.99v1.71c0,0.85-0.69,1.54-1.54,1.54c-0.85,0-1.54-0.69-1.54-1.54
		V3.67c0-0.85,0.69-1.54,1.54-1.54c0.42,0,0.81,0.17,1.08,0.45c0.28,0.28,0.45,0.66,0.45,1.09v2.97h5.99
		C45.08,6.64,49,10.56,49,15.38z"/>
</g>
<g>
	<path class="st0" d="M29.78,6.64v2.75H18.84v1.67c0,0.85-0.69,1.54-1.54,1.54c-0.85,0-1.54-0.69-1.54-1.54V3.63
		c0-0.85,0.69-1.54,1.54-1.54c0.43,0,0.81,0.17,1.09,0.45c0.28,0.28,0.45,0.66,0.45,1.09v3.01H29.78z"/>
</g>
<circle class="st0" cx="24.75" cy="19.02" r="1.83"/>
<circle class="st0" cx="24.75" cy="27.71" r="1.83"/>
<circle class="st0" cx="24.75" cy="36.46" r="1.83"/>
<circle class="st0" cx="36.64" cy="18.96" r="1.83"/>
<circle class="st0" cx="36.64" cy="27.66" r="1.83"/>
<circle class="st0" cx="36.64" cy="36.4" r="1.83"/>
<circle class="st0" cx="12.85" cy="18.99" r="1.83"/>
<circle class="st0" cx="12.85" cy="27.69" r="1.83"/>
<circle class="st0" cx="12.85" cy="36.43" r="1.83"/>
</svg>
