<?xml version="1.0" encoding="utf-8"?>
<!-- Generator: Adobe Illustrator 24.1.1, SVG Export Plug-In . SVG Version: 6.00 Build 0)  -->
<svg version="1.1" id="Layer_1" xmlns="http://www.w3.org/2000/svg" xmlns:xlink="http://www.w3.org/1999/xlink" x="0px" y="0px"
	 viewBox="0 0 500 103" style="enable-background:new 0 0 500 103;" xml:space="preserve">
<style type="text/css">
	.st0{fill:#6204BF;}
	.st1{fill:#050259;}
	.st2{fill:#F23827;}
</style>
<g>
	<path class="st0" d="M22,43.34c4.19-7.72,10.32-11.57,18.37-11.57s13.98,2.47,17.8,7.42c3.82,4.95,5.72,11.49,5.72,19.63v35.73
		H49.05V58.82c0-4.53-1.09-7.95-3.27-10.25c-2.18-2.31-5.24-3.46-9.18-3.46c-3.94,0-7.32,1.76-10.13,5.28
		c-2.81,3.52-4.3,8.81-4.47,15.85v28.31H7.15V8.25H22V43.34z"/>
	<path class="st0" d="M109.56,31.77c4.11,0,7.97,0.65,11.57,1.95c3.6,1.3,6.71,3.29,9.31,5.98c5.79,5.87,8.68,14.01,8.68,24.41
		c0,10.23-2.89,18.28-8.68,24.15c-5.2,5.37-12.16,8.05-20.88,8.05c-8.72,0-15.77-2.68-21.14-8.05c-5.79-5.79-8.68-13.84-8.68-24.15
		c0-10.48,2.89-18.62,8.68-24.41C93.7,34.41,100.75,31.77,109.56,31.77z M124.27,63.98c0-6.46-1.26-11.3-3.77-14.53
		c-2.52-3.23-6.02-4.84-10.5-4.84c-4.49,0-8.16,1.62-11.01,4.84c-2.85,3.23-4.28,8.07-4.28,14.53c0,6.46,1.28,11.3,3.84,14.53
		c2.56,3.23,6.06,4.84,10.5,4.84c4.44,0,8.09-1.61,10.94-4.84C122.85,75.28,124.27,70.44,124.27,63.98z"/>
	<path class="st1" d="M156.73,8.25h14.85v86.3h-14.85V8.25z"/>
	<path class="st1" d="M194.47,13.66c0-2.68,0.8-4.8,2.39-6.35c1.59-1.55,3.86-2.33,6.79-2.33c2.85,0,5.1,0.78,6.73,2.33
		c1.64,1.55,2.45,3.67,2.45,6.35c0,2.68-0.82,4.8-2.45,6.35c-1.64,1.55-3.88,2.33-6.73,2.33c-2.94,0-5.2-0.77-6.79-2.33
		C195.27,18.46,194.47,16.34,194.47,13.66z M196.23,33.28h14.84v61.27h-14.84V33.28z"/>
	<path class="st1" d="M276.12,85.11c-3.78,7.47-9.56,11.2-17.36,11.2c-7.8,0-14.34-2.98-19.63-8.93
		c-5.45-6.21-8.18-14.09-8.18-23.65c0-9.56,2.6-17.32,7.8-23.27c5.11-5.79,11.49-8.68,19.12-8.68c7.63,0,13.38,3.06,17.23,9.18V8.25
		h14.97v86.3h-12.2L276.12,85.11z M260.64,45.11c-4.2,0-7.7,1.7-10.5,5.1c-2.81,3.4-4.21,7.95-4.21,13.65
		c0,5.7,1.43,10.3,4.28,13.78c2.85,3.48,6.46,5.22,10.82,5.22c3.61,0,6.84-1.42,9.69-4.28c2.93-2.93,4.4-6.62,4.4-11.07v-7.93
		c-0.17-4.36-1.63-7.93-4.4-10.69C268.19,46.36,264.84,45.11,260.64,45.11z"/>
	<path class="st2" d="M333.61,58.82c4.86,0,10.48,0.8,16.86,2.39v-6.04c0-4.28-0.86-7.44-2.58-9.5c-1.72-2.05-4.53-3.08-8.43-3.08
		c-3.9,0-6.9,0.78-9,2.33c-2.1,1.55-3.15,3.75-3.15,6.6h-16.23c0-6.96,2.45-11.99,7.36-15.1c4.91-3.1,11.76-4.66,20.57-4.66
		c12.58,0,20.71,4.4,24.41,13.21c1.26,3.02,1.89,6.58,1.89,10.69v38.87h-12.96l-1.13-8.18c-3.94,6.63-9.98,9.94-18.12,9.94
		c-7.88,0-14.01-1.93-18.37-5.79c-4.03-3.69-6.04-8.37-6.04-14.03s2.22-10.02,6.67-13.08C319.81,60.35,325.89,58.82,333.61,58.82z
		 M350.47,70.64c-4.95-1.34-9.56-2.01-13.84-2.01c-8.05,0-12.08,2.69-12.08,8.05c0,2.26,0.92,4.21,2.77,5.85
		c1.84,1.64,4.8,2.45,8.87,2.45c4.07,0,7.42-1.36,10.06-4.09C348.89,78.17,350.3,74.75,350.47,70.64z"/>
	<path class="st2" d="M382.42,82.47l31.7-36.99h-31.7V33.41h48.06v12.08l-30.7,36.99h30.7v12.08h-48.06V82.47z"/>
	<path class="st2" d="M496.59,50.01c1.05,3.52,1.57,6.75,1.57,9.69c0,2.94-0.17,5.58-0.5,7.93h-39.5c0.17,4.95,1.38,8.98,3.65,12.08
		c2.26,3.1,5.7,4.65,10.32,4.65c6.12,0,9.77-2.68,10.95-8.05h14.97c-1.01,6.12-3.82,10.94-8.43,14.47
		c-4.78,3.69-10.61,5.54-17.49,5.54c-8.05,0-14.8-2.94-20.25-8.81c-5.62-6.12-8.43-13.96-8.43-23.53c0-9.81,2.81-17.7,8.43-23.65
		c5.37-5.7,12.12-8.55,20.25-8.55c8.47,0,15.05,2.98,19.75,8.93C493.96,43.39,495.54,46.49,496.59,50.01z M472.24,43.6
		c-4.19,0-7.47,1.36-9.81,4.09c-2.35,2.73-3.73,6.23-4.15,10.5h26.04c0-6.62-2.1-11.07-6.29-13.33
		C476.44,44.02,474.51,43.6,472.24,43.6z"/>
</g>
</svg>
