<?xml version="1.0" encoding="utf-8"?>
<!-- Generator: Adobe Illustrator 24.1.1, SVG Export Plug-In . SVG Version: 6.00 Build 0)  -->
<svg version="1.1" xmlns="http://www.w3.org/2000/svg" xmlns:xlink="http://www.w3.org/1999/xlink" x="0px" y="0px"
	 viewBox="0 0 1225 1225" style="enable-background:new 0 0 1225 1225;" xml:space="preserve">
<style type="text/css">
	.st0{display:none;}
	.st1{fill:#8D8DA3;}
	.st2{fill:#EAEAEA;}
	.st3{fill:#61E25A;}
	.st4{fill:#1EAAD6;}
	.st5{fill:#FFFFFF;}
	.st6{fill:none;stroke:#25C9EF;stroke-width:60;stroke-linecap:round;stroke-miterlimit:10;}
	.st7{fill:#25C9EF;}
	.st8{fill:#E55A6E;}
	.st9{fill:#EFB9C5;}
	.st10{fill:#C6465F;}
	.st11{fill:#E8D985;}
	.st12{fill:#E0C43B;}
</style>
<g id="bakgrunn" class="st0">
	
		<image style="display:inline;overflow:visible;" width="860" height="641" xlink:href="3C27FEF9.jpg"  transform="matrix(1.6744 0 0 1.6744 -47.5 147)">
	</image>
</g>
<g id="Layer_2">
	<rect x="464.5" y="157" class="st1" width="373" height="730"/>
	<rect x="501.5" y="202.7" class="st2" width="42" height="639.8"/>
	<rect x="582.5" y="201.5" class="st2" width="42" height="639.8"/>
	<rect x="667.5" y="201.5" class="st2" width="42" height="639.8"/>
	<rect x="758.5" y="201.5" class="st2" width="42" height="639.8"/>
	<path class="st3" d="M1060.37,947H141.63c-18.3,0-33.13-13.43-33.13-30s14.83-30,33.13-30h918.74c18.3,0,33.13,13.43,33.13,30
		S1078.67,947,1060.37,947z"/>
	<path class="st4" d="M367.5,1127h-68c-16.57,0-30-13.43-30-30s13.43-30,30-30h68c16.57,0,30,13.43,30,30S384.07,1127,367.5,1127z"
		/>
	<path class="st4" d="M1047.5,977c0,16.57-13.43,30-30,30h-66.33c12.86,3.38,22.33,15.08,22.33,29c0,16.57-13.43,30-30,30h-81
		c-16.57,0-30-13.43-30-30c0-13.92,9.47-25.62,22.33-29H743.5c16.57,0,30,13.43,30,30c0,16.57-13.43,30-30,30h101
		c16.57,0,30,13.43,30,30s-13.43,30-30,30h-211c16.57,0,30,13.43,30,30s-13.43,30-30,30h-190c-16.57,0-30-13.43-30-30
		s13.43-30,30-30h19c-16.57,0-30-13.43-30-30s13.43-30,30-30h-76c-16.57,0-30-13.43-30-30c0-16.57,13.43-30,30-30h-201
		c-16.57,0-30-13.43-30-30s13.43-30,30-30h832C1034.07,947,1047.5,960.43,1047.5,977z"/>
	<path class="st5" d="M864.5,1067h-130c-16.57,0-30-13.43-30-30s13.43-30,30-30h130c16.57,0,30,13.43,30,30S881.07,1067,864.5,1067z
		"/>
	<path class="st5" d="M491.12,1127.19H380.5c-16.57,0-30-13.43-30-30s13.43-30,30-30h110.62c16.57,0,30,13.43,30,30
		S507.69,1127.19,491.12,1127.19z"/>
	<path class="st5" d="M393.35,1067.6h-130c-16.57,0-30-13.43-30-30s13.43-30,30-30h130c16.57,0,30,13.43,30,30
		S409.92,1067.6,393.35,1067.6z"/>
	<line class="st6" x1="735.5" y1="1157" x2="803.5" y2="1157"/>
	<path class="st7" d="M608.5,1066.25H476.33c-16.57,0-30-13.43-30-30s13.43-30,30-30H608.5c16.57,0,30,13.43,30,30
		S625.07,1066.25,608.5,1066.25z"/>
	<rect x="808.5" y="636" class="st8" width="170" height="251"/>
	<rect x="829.5" y="679" class="st9" width="50" height="50"/>
	<rect x="906.5" y="679" class="st9" width="50" height="50"/>
	<rect x="828.5" y="750" class="st9" width="50" height="50"/>
	<rect x="908.5" y="750" class="st9" width="50" height="50"/>
	
		<rect x="881.5" y="512" transform="matrix(-1.836970e-16 1 -1 -1.836970e-16 1526.5 -275.5)" class="st9" width="39" height="227"/>
	<rect x="808.5" y="645" class="st10" width="170" height="16"/>
	<rect x="828.5" y="822" class="st9" width="50" height="50"/>
	<rect x="908.5" y="822" class="st9" width="50" height="50"/>
	<rect x="277.5" y="504" class="st11" width="295" height="383"/>
	<rect x="307.5" y="541" class="st12" width="235" height="31"/>
	<rect x="306.5" y="597" class="st12" width="235" height="31"/>
	<rect x="307.5" y="655" class="st12" width="235" height="31"/>
	<rect x="306.5" y="711" class="st12" width="235" height="31"/>
	<rect x="307.5" y="767" class="st12" width="235" height="31"/>
	
		<rect x="396.5" y="680" transform="matrix(-1.836970e-16 1 -1 -1.836970e-16 1283.5 107.5)" class="st12" width="383" height="31"/>
	
		<rect x="865.5" y="758" transform="matrix(-1.836970e-16 1 -1 -1.836970e-16 1752.5 -220.5)" class="st10" width="242" height="16"/>
	<path class="st12" d="M462.5,887h-78v-21c0-21.54,17.46-39,39-39h0.34c21.35,0,38.66,17.31,38.66,38.66V887z"/>
</g>
</svg>
