<?xml version="1.0" encoding="utf-8"?>
<!-- Generator: Adobe Illustrator 24.1.1, SVG Export Plug-In . SVG Version: 6.00 Build 0)  -->
<svg version="1.1" id="Layer_1" xmlns="http://www.w3.org/2000/svg" xmlns:xlink="http://www.w3.org/1999/xlink" x="0px" y="0px"
	 viewBox="0 0 50 50" style="enable-background:new 0 0 50 50;" xml:space="preserve">
<style type="text/css">
	.st0{fill:#FFFFFF;}
</style>
<path class="st0" d="M48.3,44.3L35.2,31.2c2.8-3.2,4.5-7.3,4.5-11.9C39.7,9.2,31.2,1,20.7,1s-19,8.2-19,18.3
	c0,10.1,8.5,18.3,19,18.3c4.1,0,7.9-1.2,10.9-3.3l13.3,13.3c0.5,0.5,1.1,0.7,1.7,0.7s1.2-0.2,1.7-0.7C49.2,46.7,49.2,45.2,48.3,44.3
	z M20.7,32.9c-7.9,0-14.3-6.1-14.3-13.6c0-7.5,6.4-13.6,14.3-13.6c7.9,0,14.3,6.1,14.3,13.6C35,26.8,28.6,32.9,20.7,32.9z"/>
</svg>
